<?xml version="1.0" encoding="UTF-8" standalone="no"?>
<!-- Created with Inkscape (http://www.inkscape.org/) -->

<svg
   width="72.166939mm"
   height="28.873823mm"
   viewBox="0 0 72.166939 28.873823"
   version="1.1"
   id="svg12009"
   inkscape:version="1.1.2 (b8e25be833, 2022-02-05)"
   sodipodi:docname="Logos.svg"
   xmlns:inkscape="http://www.inkscape.org/namespaces/inkscape"
   xmlns:sodipodi="http://sodipodi.sourceforge.net/DTD/sodipodi-0.dtd"
   xmlns="http://www.w3.org/2000/svg"
   xmlns:svg="http://www.w3.org/2000/svg">
  <sodipodi:namedview
     id="namedview12011"
     pagecolor="#505050"
     bordercolor="#eeeeee"
     borderopacity="1"
     inkscape:pageshadow="0"
     inkscape:pageopacity="0"
     inkscape:pagecheckerboard="0"
     inkscape:document-units="mm"
     showgrid="false"
     inkscape:zoom="0.77771465"
     inkscape:cx="397.96087"
     inkscape:cy="164.58479"
     inkscape:window-width="3440"
     inkscape:window-height="1417"
     inkscape:window-x="-8"
     inkscape:window-y="-8"
     inkscape:window-maximized="1"
     inkscape:current-layer="layer1"
     inkscape:showpageshadow="2"
     inkscape:deskcolor="#d1d1d1" />
  <defs
     id="defs12006" />
  <g
     inkscape:label="Layer 1"
     inkscape:groupmode="layer"
     id="layer1"
     transform="translate(-108.79141,-7.496639)">
    <g
       id="g42166"
       transform="matrix(0.58849701,0,0,0.58849701,-509.68145,-183.50141)"
       style="fill:#ffffff;fill-opacity:1;stroke:#f6f6f6;stroke-width:1.67885;stroke-miterlimit:4;stroke-dasharray:none;stroke-opacity:1">
      <path
         inkscape:export-ydpi="96"
         inkscape:export-xdpi="96"
         inkscape:export-filename="C:\Users\Steve\Documents\TCR\Graphics\Season 9\StreamLabs\Color Logo.png"
         d="m 1172.7195,325.95293 c -7.0236,3.74292 -15.4541,3.74204 -22.4767,-9.8e-4 v -9.8e-4 0 c -7.0235,3.74384 -15.4558,3.74384 -22.4793,0 v 0 l -4.9786,11.98241 h 44.9623 l 4.9789,-11.98241 v 0.002"
         style="fill:#000000;fill-opacity:1;fill-rule:nonzero;stroke:#f6f6f6;stroke-width:1.67885;stroke-miterlimit:4;stroke-dasharray:none;stroke-opacity:1"
         id="path42152"
         inkscape:connector-curvature="0" />
      <path
         d="m 1058.1498,343.92473 c -2.1001,0 -3.9932,1.26212 -4.7971,3.19879 l -1.1591,2.79241 h 14.2071 l -7.5363,17.97364 h 8.6629 c 2.0932,0 3.9814,-1.25416 4.7892,-3.18119 l 8.7144,-20.78365 h -22.8811"
         style="fill:#000000;fill-opacity:1;fill-rule:nonzero;stroke:#f6f6f6;stroke-width:1.67885;stroke-miterlimit:4;stroke-dasharray:none;stroke-opacity:1"
         id="path42154"
         inkscape:connector-curvature="0"
         inkscape:export-filename="C:\Users\Steve\Documents\TCR\Graphics\Season 9\StreamLabs\Color Logo.png"
         inkscape:export-xdpi="96"
         inkscape:export-ydpi="96" />
      <path
         inkscape:export-ydpi="96"
         inkscape:export-xdpi="96"
         inkscape:export-filename="C:\Users\Steve\Documents\TCR\Graphics\Season 9\StreamLabs\Color Logo.png"
         inkscape:connector-curvature="0"
         id="path42156"
         style="fill:#000000;fill-opacity:1;fill-rule:nonzero;stroke:#f6f6f6;stroke-width:1.67885;stroke-miterlimit:4;stroke-dasharray:none;stroke-opacity:1"
         d="m 1058.1498,343.92473 c -2.1001,0 -3.9932,1.26212 -4.7971,3.19879 l -1.1591,2.79241 h 14.2071 l -7.5363,17.97364 h 8.6629 c 2.0932,0 3.9814,-1.25416 4.7892,-3.18119 l 8.7144,-20.78365 h -22.8811" />
      <path
         inkscape:export-ydpi="96"
         inkscape:export-xdpi="96"
         inkscape:export-filename="C:\Users\Steve\Documents\TCR\Graphics\Season 9\StreamLabs\Color Logo.png"
         d="m 1172.7195,325.95293 c -7.0236,3.74292 -15.4541,3.74204 -22.4767,-9.8e-4 v -9.8e-4 0 c -7.0235,3.74384 -15.4558,3.74384 -22.4793,0 v 0 l -4.9786,11.98241 h 44.9623 l 4.9789,-11.98241 v 0.002"
         style="fill:#715b2b;fill-opacity:1;fill-rule:nonzero;stroke:#f6f6f6;stroke-width:1.67885;stroke-miterlimit:4;stroke-dasharray:none;stroke-opacity:1"
         id="path42158"
         inkscape:connector-curvature="0" />
      <path
         d="m 1058.1498,343.92473 c -2.1001,0 -3.9932,1.26212 -4.7971,3.19879 l -1.1591,2.79241 h 14.2071 l -7.5363,17.97364 h 8.6629 c 2.0932,0 3.9814,-1.25416 4.7892,-3.18119 l 8.7144,-20.78365 h -22.8811"
         style="fill:#000000;fill-opacity:1;fill-rule:nonzero;stroke:#f6f6f6;stroke-width:1.67885;stroke-miterlimit:4;stroke-dasharray:none;stroke-opacity:1"
         id="path42160"
         inkscape:connector-curvature="0"
         inkscape:export-filename="C:\Users\Steve\Documents\TCR\Graphics\Season 9\StreamLabs\Color Logo.png"
         inkscape:export-xdpi="96"
         inkscape:export-ydpi="96" />
      <path
         sodipodi:nodetypes="ccsccsccsccccsccsccsccccsccsccsccsc"
         d="m 1093.2735,360.79403 5.0241,-11.98229 h 10.6408 c 2.0998,0 3.9933,-1.26205 4.7965,-3.19894 l 1.1598,-2.79226 h -22.7481 c -2.0933,0 -3.9815,1.25423 -4.7896,3.18105 l -8.714,20.78379 h 41.451 c 2.0928,0 3.9809,-1.25416 4.7894,-3.18119 l 6.2018,-14.79245 h 20.6694 l -1.1784,2.81016 c -0.8076,1.92682 -2.6958,3.18098 -4.7894,3.18098 h -10.5731 l 6.2018,14.79244 c 0.8084,1.92704 2.6966,3.18121 4.7893,3.18121 h 8.6627 l -5.0233,-11.9825 h 5.549 c 2.0936,0 3.9818,-1.25395 4.7902,-3.18099 l 6.2018,-14.7925 h -44.9063 l -6.2018,14.7925 c -0.8085,1.92704 -2.6967,3.18099 -4.7894,3.18099 h -17.2142 l 5.0241,-11.98229 h 10.6408 c 2.0998,0 3.9933,-1.26205 4.7965,-3.19894 l 1.1598,-2.79226 h -22.7481 c -2.0933,0 -3.9815,1.25423 -4.7896,3.18105 l -8.714,20.78379 h 41.451 c 2.0928,0 3.9809,-1.25416 4.7894,-3.18119"
         style="fill:#262b70;fill-opacity:1;fill-rule:nonzero;stroke:#f6f6f6;stroke-width:1.67885;stroke-miterlimit:4;stroke-dasharray:none;stroke-opacity:1"
         id="path42162"
         inkscape:connector-curvature="0"
         inkscape:export-filename="C:\Users\Steve\Documents\TCR\Graphics\Season 9\StreamLabs\Color Logo.png"
         inkscape:export-xdpi="96"
         inkscape:export-ydpi="96" />
      <path
         inkscape:export-ydpi="96"
         inkscape:export-xdpi="96"
         inkscape:export-filename="C:\Users\Steve\Documents\TCR\Graphics\Season 9\StreamLabs\Color Logo.png"
         inkscape:connector-curvature="0"
         id="path42164"
         style="fill:#262b70;fill-opacity:1;fill-rule:nonzero;stroke:#f6f6f6;stroke-width:1.67885;stroke-miterlimit:4;stroke-dasharray:none;stroke-opacity:1"
         d="m 1058.1498,343.92473 c -2.1001,0 -3.9932,1.26212 -4.7971,3.19879 l -1.1591,2.79241 h 14.2071 l -7.5363,17.97364 h 8.6629 c 2.0932,0 3.9814,-1.25416 4.7892,-3.18119 l 8.7144,-20.78365 h -22.8811" />
    </g>
  </g>
</svg>
